<svg width="21" height="21" viewBox="0 0 21 21" fill="none" xmlns="http://www.w3.org/2000/svg">
<path fill-rule="evenodd" clip-rule="evenodd" d="M10.5 21C16.299 21 21 16.299 21 10.5C21 4.70101 16.299 0 10.5 0C4.70101 0 0 4.70101 0 10.5C0 16.299 4.70101 21 10.5 21ZM6.54325 6.54315C6.72881 6.35759 7.00001 6.32794 7.149 6.47692L10.4098 9.73776L13.6706 6.47695C13.8196 6.32796 14.0908 6.35762 14.2764 6.54318C14.462 6.72874 14.4916 6.99995 14.3426 7.14893L11.0818 10.4097L14.3426 13.6705C14.4916 13.8195 14.4619 14.0907 14.2764 14.2763C14.0908 14.4619 13.8196 14.4915 13.6706 14.3425L10.4098 11.0817L7.14901 14.3425C7.00003 14.4915 6.72883 14.4619 6.54326 14.2763C6.3577 14.0908 6.32805 13.8195 6.47703 13.6706L9.73785 10.4097L6.47702 7.1489C6.32803 6.99992 6.35768 6.72871 6.54325 6.54315Z" fill="#F5F4F0"/>
</svg>
