<svg width="25" height="25" viewBox="0 0 25 25" fill="none" xmlns="http://www.w3.org/2000/svg">
<path fill-rule="evenodd" clip-rule="evenodd" d="M2.38004 0.294546C1.91767 -0.167827 1.07599 -0.0757999 0.500093 0.500093C-0.0758006 1.07599 -0.167826 1.91767 0.294546 2.38004L10.4146 12.5001L0.294721 22.62C-0.167652 23.0824 -0.0756263 23.9241 0.500267 24.5C1.07616 25.0759 1.91784 25.1679 2.38022 24.7055L12.5001 14.5856L22.6199 24.7054C23.0823 25.1678 23.9239 25.0757 24.4998 24.4998C25.0757 23.9239 25.1678 23.0823 24.7054 22.6199L14.5856 12.5001L24.7056 2.38017C25.1679 1.9178 25.0759 1.07611 24.5 0.50022C23.9241 -0.0756732 23.0824 -0.167699 22.6201 0.294674L12.5001 10.4146L2.38004 0.294546Z" fill="white"/>
</svg>
