<svg width="18" height="17" viewBox="0 0 18 17" fill="none" xmlns="http://www.w3.org/2000/svg">
<path d="M17.0019 8.49955V8.53785C16.9937 10.3983 15.4586 11.9124 13.58 11.9124H10.9789L16.7139 6.29736C16.9051 7.01581 17.0019 7.7561 17.0019 8.49955Z" fill="currentColor"/>
<path d="M7.84119 12.6655L15.8675 12.7516C15.4936 13.395 15.038 13.9872 14.5119 14.5135L14.4852 14.5393C13.1648 15.8494 11.0095 15.8339 9.67971 14.5058L7.84119 12.6655Z" fill="currentColor"/>
<path d="M14.5377 2.51611C15.8482 3.83734 15.8335 5.99347 14.5054 7.32201L12.6652 9.16097L12.7512 1.1355C13.395 1.50838 13.9873 1.96367 14.5132 2.48986L14.5377 2.51611Z" fill="currentColor"/>
<path d="M11.9116 3.42031V6.02273L6.297 0.287241C7.01596 0.0957614 7.75688 -0.000883168 8.5009 -0.000240961H8.53878C10.4005 0.007936 11.9116 1.54305 11.9116 3.42031Z" fill="currentColor"/>
<path d="M5.08936 10.9773L10.7052 16.7128C9.9861 16.9043 9.24504 17.001 8.50087 17.0003H8.46386C6.60295 16.993 5.08936 15.4587 5.08936 13.5793V10.9773Z" fill="currentColor"/>
<path d="M9.16073 4.33566L1.1344 4.24959C1.5085 3.6066 1.96416 3.01468 2.49005 2.48853L2.51717 2.46185C3.83839 1.15267 5.99324 1.16816 7.32135 2.49627L9.16073 4.33566Z" fill="currentColor"/>
<path d="M6.02286 5.08862L0.286934 10.7036C0.0959346 9.98441 -0.000562667 9.2434 -0.000120558 8.49928V8.46226C0.00848677 6.60179 1.54274 5.08862 3.42086 5.08862H6.02286Z" fill="currentColor"/>
<path d="M4.33707 7.83984L4.25099 15.8662C3.60734 15.4932 3.01504 15.0379 2.48908 14.5118L2.46325 14.4847C1.15408 13.1635 1.16785 11.0082 2.49639 9.67966L4.33707 7.83984Z" fill="currentColor"/>
</svg>
