<svg width="103" height="103" viewBox="0 0 103 103" fill="none" xmlns="http://www.w3.org/2000/svg">
<path d="M73.4203 82.7198L102.471 54.2759C101.873 64.6235 98.1403 74.5442 91.7691 82.7198H73.4203Z" fill="#EED7A1"/>
<path d="M102.173 44.8036L89.1857 57.7934L89.6162 17.1533C96.5071 24.8846 100.886 34.5273 102.173 44.8036Z" fill="#8E827D"/>
<path d="M44.6574 89.1885L85.3106 89.6217C77.5705 96.5129 67.9184 100.888 57.6344 102.168L44.6574 89.1885Z" fill="#CD8B62"/>
<path d="M82.696 10.6866V29.0509L54.2624 0C64.6048 0.595711 74.5215 4.32281 82.696 10.6866Z" fill="#272823"/>
<path d="M44.8338 0.313721L57.803 13.2829L17.1603 12.8497C24.9017 5.9638 34.5523 1.59218 44.8338 0.313721Z" fill="#394556"/>
<path d="M19.7774 73.4365L48.2214 102.474C37.8763 101.885 27.9555 98.1611 19.7774 91.7982V73.4365Z" fill="#CE6249"/>
<path d="M29.0503 19.7571L-0.000549316 48.1958C0.599814 37.8506 4.33134 27.9324 10.699 19.7571H29.0503Z" fill="#55707F"/>
<path d="M13.2954 44.689L12.8675 85.3135C5.97918 77.5791 1.60217 67.9351 0.315918 57.6581L13.2954 44.689Z" fill="#6F9FA3"/>
</svg>
