<svg width="86" height="29" viewBox="0 0 86 29" fill="none" xmlns="http://www.w3.org/2000/svg">
<path d="M27.0818 14.5341V14.5951C27.0688 17.5586 24.6236 19.9702 21.6313 19.9702H17.4881L26.6232 11.0264C26.9277 12.1707 27.0819 13.3499 27.0818 14.5341Z" fill="#F5F4F0"/>
<path d="M12.4901 21.1699L25.2748 21.307C24.6793 22.3319 23.9534 23.2752 23.1154 24.1135L23.0729 24.1546C20.9698 26.2413 17.5368 26.2166 15.4185 24.1012L12.4901 21.1699Z" fill="#F5F4F0"/>
<path d="M23.1565 5.00282C25.2439 7.10734 25.2206 10.5417 23.1051 12.6579L20.1739 15.5871L20.311 2.80371C21.3364 3.39765 22.2798 4.12287 23.1175 4.96101L23.1565 5.00282Z" fill="#F5F4F0"/>
<path d="M18.9735 6.44404V10.5893L10.0304 1.45353C11.1756 1.14853 12.3558 0.994588 13.5409 0.995611H13.6012C16.5667 1.00864 18.9735 3.45385 18.9735 6.44404Z" fill="#F5F4F0"/>
<path d="M8.10687 18.4807L17.0521 27.6165C15.9067 27.9216 14.7263 28.0755 13.5409 28.0744H13.482C10.5178 28.0628 8.10687 25.6189 8.10687 22.6253V18.4807Z" fill="#F5F4F0"/>
<path d="M14.5918 7.90187L1.80707 7.76477C2.40296 6.74059 3.12876 5.79774 3.96642 4.95967L4.00961 4.91716C6.11412 2.83184 9.54647 2.85652 11.662 4.972L14.5918 7.90187Z" fill="#F5F4F0"/>
<path d="M9.59371 9.10156L0.457238 18.0454C0.153004 16.8998 -0.000701804 15.7195 2.40881e-06 14.5342V14.4753C0.0137126 11.5118 2.45755 9.10156 5.44912 9.10156H9.59371Z" fill="#F5F4F0"/>
<path d="M6.90863 13.4834L6.77153 26.2682C5.74628 25.674 4.80285 24.9488 3.96505 24.1108L3.92392 24.0677C1.8386 21.9631 1.86054 18.5301 3.97671 16.414L6.90863 13.4834Z" fill="#F5F4F0"/>
<path d="M39.8294 15.0163C39.7098 14.8652 39.5598 14.7408 39.3892 14.6511C39.2187 14.5613 39.0312 14.5083 38.8389 14.4953C38.1376 14.4597 36.9722 15.0122 35.5169 16.2345L44.9132 6.49339H42.1163L35.0254 13.8441V0.995605H33.0114V21.942H35.0254V16.8261C37.1505 15.1288 38.0265 16.4148 38.0265 16.4148L42.5015 21.9324L45.4362 21.9077L39.8294 15.0163Z" fill="#F5F4F0"/>
<path d="M55.1814 10.3663C54.1056 9.62047 52.7828 9.24756 51.213 9.24756C49.7506 9.24756 48.5064 9.58505 47.4804 10.26C46.4544 10.935 45.9088 11.8701 45.8434 13.0652L47.7978 13.0412C47.9395 12.3036 48.3359 11.7659 48.9872 11.4282C49.6384 11.0904 50.3961 10.9216 51.2603 10.9216C52.2963 10.9216 53.1599 11.1453 53.8509 11.5927C54.5418 12.0401 54.8873 12.6879 54.8873 13.5361V14.4547L50.86 14.478C49.0228 14.478 47.6568 14.8351 46.762 15.5494C46.0561 16.1151 45.5853 16.9227 45.441 17.8157L45.4376 17.8102V17.8288C45.4314 17.8726 45.428 17.9172 45.4239 17.9611C45.4037 18.1202 45.3941 18.2805 45.3951 18.4409C45.3927 18.8665 45.4701 19.2888 45.6234 19.6858C45.7519 20.0054 45.946 20.2944 46.193 20.5345C46.312 20.6714 46.4438 20.7967 46.5865 20.9087C47.3611 21.5127 48.3777 21.7348 49.3608 21.7238C50.6207 21.7087 51.8821 21.3269 52.9076 20.5941C53.8181 19.9447 54.5086 19.0328 54.8867 17.9803V21.318H56.7944V13.2975C56.7949 12.0915 56.2572 11.1144 55.1814 10.3663ZM53.4505 19.1038C52.4908 19.9909 51.4075 20.4344 50.2005 20.4344C49.478 20.4344 48.8578 20.2655 48.34 19.9278C48.091 19.7722 47.8822 19.56 47.7308 19.3084C47.5793 19.0568 47.4896 18.7729 47.4688 18.48C47.4057 17.789 47.6726 17.2001 48.2694 16.7134C48.8663 16.2267 49.8397 15.9754 51.1897 15.9594H54.8867C54.8867 17.1686 54.4079 18.2168 53.4505 19.1038Z" fill="#F5F4F0"/>
<path d="M84.3868 10.3663C83.3115 9.62047 81.9887 9.24756 80.4184 9.24756C78.956 9.24756 77.7116 9.58505 76.6851 10.26C75.6587 10.935 75.1133 11.8701 75.0488 13.0652L77.0032 13.0412C77.1444 12.3036 77.5409 11.7659 78.1926 11.4282C78.8443 11.0904 79.602 10.9216 80.4657 10.9216C81.5013 10.9216 82.3648 11.1453 83.0563 11.5927C83.7477 12.0401 84.093 12.6879 84.0921 13.5361V14.4547L80.0647 14.478C78.2284 14.478 76.8627 14.8351 75.9674 15.5494C75.2611 16.1149 74.79 16.9226 74.6457 17.8157V17.8102V17.8288C74.6396 17.8726 74.6361 17.9172 74.632 17.9611C74.6118 18.1202 74.6022 18.2805 74.6032 18.4409C74.6002 18.8666 74.6776 19.289 74.8315 19.6858C74.9599 20.0055 75.154 20.2946 75.4012 20.5345C75.5201 20.6712 75.6516 20.7965 75.794 20.9087C76.5686 21.5127 77.5859 21.7348 78.5682 21.7238C79.8282 21.7087 81.0902 21.3269 82.1157 20.5941C83.0245 19.9442 83.7131 19.0322 84.0893 17.9803V21.318H85.9971V13.2975C85.9989 12.0915 85.4622 11.1144 84.3868 10.3663ZM82.6552 19.1038C81.6955 19.9909 80.6124 20.4344 79.4059 20.4344C78.6834 20.4344 78.063 20.2655 77.5448 19.9278C77.2958 19.7722 77.087 19.5599 76.9356 19.3083C76.7842 19.0567 76.6944 18.7729 76.6735 18.48C76.6104 17.789 76.8773 17.2001 77.4742 16.7134C78.071 16.2267 79.0444 15.9754 80.3944 15.9594H84.0893C84.0893 17.1686 83.6113 18.2168 82.6552 19.1038Z" fill="#F5F4F0"/>
<path d="M67.9017 16.0422C67.234 15.4376 66.0995 14.9705 64.4981 14.641C63.038 14.343 62.0326 14.072 61.4819 13.828C60.9312 13.5839 60.657 13.2033 60.6593 12.6859C60.6593 12.1211 60.9577 11.6657 61.5546 11.3197C62.1514 10.9738 62.8422 10.8012 63.6269 10.8021C65.135 10.8021 66.7443 11.3505 68.4549 12.4474V10.4697C66.8376 9.52733 65.2282 9.05615 63.6269 9.05615C62.3239 9.05615 61.1778 9.382 60.1883 10.0337C59.1989 10.6854 58.7044 11.5685 58.7049 12.6832C58.7049 13.6251 59.0895 14.3631 59.8586 14.8974C60.6278 15.4316 61.821 15.871 63.4383 16.2156C64.7413 16.499 65.6553 16.8013 66.1804 17.1225C66.7055 17.4438 66.9685 17.8403 66.9694 18.3119C66.9845 18.8457 66.7292 19.2931 66.2037 19.6541C65.6781 20.0152 64.9597 20.1959 64.0484 20.1964C63.0113 20.1994 61.9863 19.9743 61.0459 19.5369C60.0958 19.0977 59.3225 18.5722 58.7262 17.9602V20.1737C60.4847 21.3514 62.267 21.9403 64.0731 21.9403C65.4702 21.9403 66.6241 21.6222 67.5349 20.9861C68.4458 20.3499 68.9012 19.4512 68.9012 18.29C68.9086 17.8651 68.823 17.4437 68.6504 17.0554C68.4777 16.6671 68.2222 16.3213 67.9017 16.0422Z" fill="#F5F4F0"/>
<path d="M71.8186 4.67848C71.6329 4.67776 71.4488 4.7138 71.277 4.78454C71.1052 4.85527 70.9492 4.9593 70.8178 5.09063C70.6864 5.22196 70.5823 5.37799 70.5114 5.54973C70.4406 5.72148 70.4045 5.90554 70.4051 6.09131C70.401 6.27575 70.4354 6.45903 70.5062 6.62938C70.5771 6.79973 70.6827 6.95338 70.8164 7.0805C71.0863 7.33749 71.4446 7.48084 71.8173 7.48084C72.1899 7.48084 72.5483 7.33749 72.8181 7.0805C72.9517 6.9533 73.0573 6.79963 73.1281 6.6293C73.199 6.45897 73.2334 6.27574 73.2294 6.09131C73.2302 5.90555 73.1942 5.72146 73.1235 5.54968C73.0528 5.37789 72.9488 5.22182 72.8174 5.09046C72.6861 4.95911 72.53 4.85507 72.3582 4.78436C72.1864 4.71365 72.0023 4.67766 71.8166 4.67848H71.8186Z" fill="#F5F4F0"/>
<path d="M72.8182 9.39844H70.8165V21.8809H72.8182V9.39844Z" fill="#F5F4F0"/>
<path d="M35.5553 26.3977C35.3668 26.2276 35.0453 26.0947 34.5956 26.0028C34.1925 25.9205 33.91 25.8451 33.7599 25.778C33.6098 25.7108 33.5426 25.6148 33.5426 25.4784C33.5426 25.3269 33.6208 25.2083 33.7819 25.1151C33.9551 25.0181 34.151 24.9691 34.3495 24.9732C34.7608 24.9732 35.2111 25.1267 35.6828 25.429L35.7136 25.4489V24.8505L35.7033 24.8443C35.2954 24.594 34.828 24.4572 34.3495 24.4481C34.0066 24.4415 33.6694 24.537 33.3808 24.7223C33.2506 24.8 33.143 24.9105 33.0689 25.0428C32.9948 25.1752 32.9567 25.3247 32.9586 25.4763C32.9549 25.6012 32.9833 25.7249 33.041 25.8356C33.0988 25.9464 33.1839 26.0405 33.2883 26.1091C33.5035 26.2585 33.8415 26.3833 34.2926 26.4792C34.6511 26.5574 34.9095 26.641 35.0501 26.7294C35.1906 26.8179 35.2605 26.9186 35.2605 27.0441C35.2646 27.1867 35.1974 27.3039 35.0548 27.4012C34.9123 27.4986 34.7121 27.5479 34.466 27.5479C34.1801 27.5484 33.8975 27.4867 33.6379 27.367C33.3999 27.2615 33.183 27.1138 32.9976 26.931L32.964 26.896V27.5726L32.9723 27.5781C33.4631 27.9065 33.9676 28.073 34.4722 28.073C34.8643 28.073 35.192 27.9826 35.4476 27.8043C35.5723 27.7199 35.6734 27.6051 35.7414 27.4708C35.8094 27.3364 35.8421 27.187 35.8363 27.0366C35.8384 26.9161 35.8143 26.7966 35.7658 26.6863C35.7172 26.576 35.6454 26.4776 35.5553 26.3977Z" fill="#F5F4F0"/>
<path d="M44.715 27.5111C44.5354 27.4213 44.4408 27.2369 44.4408 26.9682L44.4469 25.0858H45.5753V24.5606H44.4504V23.6167H43.8595V24.5606H43.1383V25.0858H43.8595L43.8533 26.9743C43.8533 27.4542 44.0089 27.7969 44.3153 27.982C44.5107 28.0938 44.7333 28.1493 44.9583 28.1424C45.1652 28.1394 45.3709 28.1103 45.5705 28.0561H45.5849V27.4761L45.5595 27.4837C45.1818 27.592 44.8973 27.6023 44.715 27.5111Z" fill="#F5F4F0"/>
<path d="M55.3568 26.8531C55.36 27.092 55.2702 27.3228 55.1066 27.4968C54.9429 27.6708 54.718 27.7745 54.4794 27.7861H54.4321C54.1283 27.7859 53.837 27.6652 53.6221 27.4504C53.4072 27.2356 53.2863 26.9444 53.2859 26.6406C53.2859 26.6234 53.2859 26.6063 53.2859 26.5878C53.2859 26.5693 53.2859 26.5398 53.2859 26.5151V24.5601H52.6888V26.679C52.6888 27.1204 52.8362 27.4769 53.1283 27.7395C53.4146 28.0003 53.7898 28.1418 54.1771 28.135C54.4318 28.1401 54.6828 28.0743 54.9024 27.9451C55.0829 27.8379 55.2382 27.6929 55.3575 27.5201V28.0781H55.9553V24.5621H55.3575L55.3568 26.8531Z" fill="#F5F4F0"/>
<path d="M65.4969 25.1508C65.3644 24.9601 65.1893 24.8029 64.9855 24.6915C64.7545 24.565 64.4949 24.4999 64.2315 24.5023C63.9976 24.4989 63.7656 24.5443 63.5503 24.6356C63.335 24.727 63.1411 24.8623 62.9811 25.0329C62.6497 25.3776 62.4647 25.8373 62.4647 26.3154C62.4647 26.7936 62.6497 27.2533 62.9811 27.598C63.1401 27.7696 63.3332 27.9061 63.5481 27.9986C63.763 28.0912 63.9948 28.1378 64.2287 28.1355C64.4925 28.1378 64.7524 28.0714 64.9828 27.9428C65.1853 27.8305 65.36 27.6743 65.4942 27.4856V28.0779H66.0913V23.4473H65.4942L65.4969 25.1508ZM65.1645 25.425C65.3994 25.6627 65.5312 25.9835 65.5312 26.3178C65.5312 26.6521 65.3994 26.973 65.1645 27.2107C65.0507 27.3306 64.9135 27.4257 64.7613 27.4901C64.6092 27.5545 64.4454 27.5868 64.2801 27.585C64.1156 27.5879 63.9522 27.5565 63.8005 27.4926C63.6489 27.4287 63.5122 27.3339 63.3993 27.2141C63.168 26.973 63.0389 26.6519 63.0389 26.3178C63.0389 25.9838 63.168 25.6626 63.3993 25.4215C63.5123 25.3031 63.6486 25.2093 63.7996 25.1461C63.9506 25.0829 64.113 25.0515 64.2767 25.0541C64.4422 25.0513 64.6065 25.0827 64.7593 25.1464C64.912 25.2101 65.05 25.3047 65.1645 25.4243V25.425Z" fill="#F5F4F0"/>
<path d="M74.2399 23.2292C74.1308 23.2292 74.0262 23.2726 73.9491 23.3497C73.872 23.4268 73.8286 23.5315 73.8286 23.6406C73.8276 23.6945 73.8378 23.748 73.8586 23.7978C73.8794 23.8476 73.9102 23.8926 73.9493 23.9298C74.0282 24.005 74.133 24.047 74.242 24.047C74.351 24.047 74.4558 24.005 74.5347 23.9298C74.5739 23.8927 74.6048 23.8478 74.6256 23.7979C74.6464 23.7481 74.6565 23.6945 74.6553 23.6406C74.6553 23.5315 74.612 23.4268 74.5349 23.3497C74.4577 23.2726 74.3531 23.2292 74.244 23.2292H74.2399Z" fill="#F5F4F0"/>
<path d="M74.5388 24.5615H73.941V28.0775H74.5388V24.5615Z" fill="#F5F4F0"/>
<path d="M85.4733 25.0357C85.3065 24.8672 85.1078 24.7333 84.8889 24.642C84.67 24.5507 84.4351 24.5037 84.1979 24.5037C83.9607 24.5037 83.7259 24.5507 83.507 24.642C83.2881 24.7333 83.0894 24.8672 82.9226 25.0357C82.5869 25.3777 82.3988 25.8377 82.3988 26.3169C82.3988 26.7961 82.5869 27.2562 82.9226 27.5981C83.0891 27.7673 83.2876 27.9016 83.5066 27.9933C83.7256 28.085 83.9606 28.1322 84.1979 28.1322C84.4353 28.1322 84.6703 28.085 84.8893 27.9933C85.1083 27.9016 85.3068 27.7673 85.4733 27.5981C85.8107 27.2576 85.9999 26.7976 85.9999 26.3183C85.9999 25.839 85.8107 25.379 85.4733 25.0384V25.0357ZM85.4356 26.3121C85.4385 26.4771 85.4082 26.641 85.3467 26.794C85.2851 26.9471 85.1934 27.0863 85.0771 27.2033C84.9626 27.3197 84.8261 27.4122 84.6755 27.4754C84.525 27.5387 84.3633 27.5714 84.2 27.5717C84.0367 27.5721 83.875 27.5399 83.7242 27.4773C83.5734 27.4146 83.4365 27.3227 83.3215 27.2067C83.0919 26.9662 82.9637 26.6464 82.9637 26.3138C82.9637 25.9813 83.0919 25.6615 83.3215 25.421C83.4359 25.3046 83.5722 25.2123 83.7226 25.1492C83.873 25.0861 84.0345 25.0537 84.1976 25.0537C84.3607 25.0537 84.5222 25.0861 84.6726 25.1492C84.823 25.2123 84.9594 25.3046 85.0737 25.421C85.1906 25.5377 85.2829 25.6767 85.3451 25.8298C85.4072 25.9829 85.438 26.1469 85.4356 26.3121Z" fill="#F5F4F0"/>
</svg>
